<svg xmlns="http://www.w3.org/2000/svg" xmlns:xlink="http://www.w3.org/1999/xlink" width="500" zoomAndPan="magnify" viewBox="0 0 375 374.999991" height="500" preserveAspectRatio="xMidYMid meet" version="1.0"><defs><clipPath id="d24daad28f"><path d="M 37.5 37.5 L 337.5 37.5 L 337.5 337.5 L 37.5 337.5 Z M 37.5 37.5 " clip-rule="nonzero"/></clipPath></defs><g clip-path="url(#d24daad28f)"><path fill="#ffffff" d="M 37.5 37.5 L 37.5 282.953125 C 37.5 313.035156 61.964844 337.5 92.046875 337.5 C 122.128906 337.5 146.589844 313.035156 146.589844 282.953125 L 146.589844 37.5 Z M 64.773438 64.773438 L 119.316406 64.773438 L 119.316406 119.316406 L 64.773438 119.316406 Z M 227.050781 70.820312 L 167.070312 130.824219 L 167.070312 169.363281 L 227.023438 109.382812 L 265.617188 147.949219 L 167.046875 246.519531 L 167.046875 282.953125 C 167.046875 283.71875 166.953125 284.429688 166.9375 285.191406 L 304.179688 147.976562 Z M 64.773438 146.589844 L 119.316406 146.589844 L 119.316406 201.136719 L 64.773438 201.136719 Z M 64.773438 228.410156 L 119.316406 228.410156 L 119.316406 282.953125 C 119.316406 297.996094 107.085938 310.226562 92.046875 310.226562 C 77.003906 310.226562 64.773438 297.996094 64.773438 282.953125 Z M 252.644531 228.410156 L 225.371094 255.683594 L 310.226562 255.683594 L 310.226562 310.226562 L 170.828125 310.226562 L 145.074219 335.980469 C 144.5 336.554688 143.820312 336.953125 143.234375 337.5 L 337.5 337.5 L 337.5 228.410156 Z M 252.644531 228.410156 " fill-opacity="1" fill-rule="nonzero"/></g></svg>