<svg xmlns="http://www.w3.org/2000/svg" xmlns:xlink="http://www.w3.org/1999/xlink" width="500" zoomAndPan="magnify" viewBox="0 0 375 374.999991" height="500" preserveAspectRatio="xMidYMid meet" version="1.0"><defs><clipPath id="c625099b04"><path d="M 51.3125 6.023438 L 323.5625 6.023438 L 323.5625 375 L 51.3125 375 Z M 51.3125 6.023438 " clip-rule="nonzero"/></clipPath></defs><g clip-path="url(#c625099b04)"><path fill="#ffffff" d="M 111.484375 254.882812 L 73.917969 338.511719 C 73.199219 340.109375 73.410156 341.972656 74.464844 343.371094 C 75.519531 344.765625 77.253906 345.476562 78.988281 345.222656 L 118.238281 339.464844 C 118.238281 339.464844 140.003906 372.632812 140.003906 372.632812 C 140.964844 374.097656 142.648438 374.921875 144.394531 374.78125 C 146.140625 374.644531 147.671875 373.5625 148.390625 371.964844 L 187.460938 284.992188 L 226.527344 371.964844 C 227.246094 373.5625 228.777344 374.644531 230.523438 374.78125 C 232.269531 374.921875 233.953125 374.097656 234.914062 372.632812 L 256.679688 339.464844 C 256.679688 339.464844 295.929688 345.222656 295.929688 345.222656 C 297.664062 345.476562 299.398438 344.765625 300.453125 343.371094 C 301.511719 341.972656 301.71875 340.109375 301.003906 338.511719 L 263.4375 254.882812 C 299.664062 230.429688 323.507812 188.996094 323.507812 142.035156 C 323.507812 66.949219 262.546875 5.984375 187.460938 5.984375 C 112.371094 5.984375 51.410156 66.949219 51.410156 142.035156 C 51.410156 188.996094 75.253906 230.429688 111.484375 254.882812 Z M 255.222656 260.011719 C 237.257812 270.359375 216.707031 276.722656 194.789062 277.890625 L 231.695312 360.050781 L 250.339844 331.644531 C 251.363281 330.082031 253.199219 329.257812 255.042969 329.527344 C 255.042969 329.527344 288.664062 334.460938 288.664062 334.460938 Z M 119.695312 260.011719 L 86.253906 334.460938 L 119.875 329.527344 C 121.722656 329.257812 123.558594 330.082031 124.582031 331.644531 C 124.582031 331.644531 143.226562 360.050781 143.226562 360.050781 L 180.132812 277.890625 C 158.210938 276.726562 137.660156 270.363281 119.695312 260.011719 Z M 187.460938 15.582031 C 257.253906 15.582031 313.914062 72.242188 313.914062 142.035156 C 313.914062 211.828125 257.253906 268.492188 187.460938 268.492188 C 117.667969 268.492188 61.003906 211.828125 61.003906 142.035156 C 61.003906 72.242188 117.667969 15.582031 187.460938 15.582031 Z M 187.460938 28.875 C 125.003906 28.875 74.300781 79.582031 74.300781 142.035156 C 74.300781 204.488281 125.003906 255.195312 187.460938 255.195312 C 249.914062 255.195312 300.617188 204.488281 300.617188 142.035156 C 300.617188 79.582031 249.914062 28.875 187.460938 28.875 Z M 187.460938 38.472656 C 244.617188 38.472656 291.023438 84.878906 291.023438 142.035156 C 291.023438 199.195312 244.617188 245.601562 187.460938 245.601562 C 130.300781 245.601562 83.894531 199.195312 83.894531 142.035156 C 83.894531 84.878906 130.300781 38.472656 187.460938 38.472656 Z M 191.824219 63.238281 C 191.042969 61.53125 189.335938 60.4375 187.460938 60.4375 C 185.582031 60.4375 183.878906 61.53125 183.097656 63.238281 L 162.707031 107.839844 C 162.707031 107.839844 113.992188 113.449219 113.992188 113.449219 C 112.125 113.664062 110.558594 114.945312 109.976562 116.730469 C 109.398438 118.515625 109.910156 120.476562 111.292969 121.746094 L 147.410156 154.917969 C 147.410156 154.917969 137.691406 202.984375 137.691406 202.984375 C 137.316406 204.824219 138.054688 206.714844 139.574219 207.816406 C 141.09375 208.921875 143.113281 209.035156 144.75 208.113281 L 187.460938 184.015625 C 187.460938 184.015625 230.167969 208.113281 230.167969 208.113281 C 231.804688 209.035156 233.828125 208.921875 235.347656 207.816406 C 236.863281 206.714844 237.601562 204.824219 237.230469 202.984375 L 227.507812 154.917969 C 227.507812 154.917969 263.625 121.746094 263.625 121.746094 C 265.007812 120.476562 265.523438 118.515625 264.941406 116.730469 C 264.363281 114.945312 262.792969 113.664062 260.929688 113.449219 L 212.210938 107.839844 C 212.210938 107.839844 191.824219 63.238281 191.824219 63.238281 Z M 187.460938 76.773438 L 204.609375 114.289062 C 205.308594 115.820312 206.753906 116.871094 208.425781 117.0625 L 249.40625 121.78125 C 249.40625 121.78125 219.023438 149.683594 219.023438 149.683594 C 217.785156 150.820312 217.234375 152.519531 217.566406 154.167969 L 225.742188 194.601562 C 225.742188 194.601562 189.816406 174.328125 189.816406 174.328125 C 188.355469 173.503906 186.566406 173.503906 185.101562 174.328125 L 149.175781 194.601562 C 149.175781 194.601562 157.351562 154.167969 157.351562 154.167969 C 157.683594 152.519531 157.132812 150.820312 155.894531 149.683594 L 125.515625 121.78125 C 125.515625 121.78125 166.496094 117.0625 166.496094 117.0625 C 168.164062 116.871094 169.609375 115.820312 170.308594 114.289062 Z M 187.460938 76.773438 " fill-opacity="1" fill-rule="evenodd"/></g></svg>